<svg width="68" height="19" viewBox="0 0 68 19" fill="none" xmlns="http://www.w3.org/2000/svg">
<path d="M12.4148 6.11932C12.2727 5.65909 12.0767 5.24716 11.8267 4.88352C11.5824 4.5142 11.2869 4.19886 10.9403 3.9375C10.5994 3.67614 10.2074 3.48011 9.7642 3.34943C9.32102 3.21307 8.83807 3.14489 8.31534 3.14489C7.37784 3.14489 6.54261 3.38068 5.80966 3.85227C5.0767 4.32386 4.5 5.01704 4.07955 5.93182C3.66477 6.84091 3.45739 7.94886 3.45739 9.25568C3.45739 10.5739 3.66477 11.6903 4.07955 12.6051C4.49432 13.5199 5.07102 14.2159 5.80966 14.6932C6.5483 15.1648 7.40625 15.4006 8.38352 15.4006C9.26989 15.4006 10.0369 15.2301 10.6847 14.8892C11.3381 14.5483 11.8409 14.0653 12.1932 13.4403C12.5455 12.8097 12.7216 12.071 12.7216 11.2244L13.4375 11.3352H8.69886V8.86364H15.7812V10.9602C15.7812 12.4545 15.4631 13.7472 14.8267 14.8381C14.1903 15.929 13.3153 16.7699 12.2017 17.3608C11.0881 17.946 9.80966 18.2386 8.36648 18.2386C6.75852 18.2386 5.34659 17.8778 4.13068 17.1562C2.92045 16.429 1.97443 15.3977 1.29261 14.0625C0.616477 12.7216 0.278409 11.1307 0.278409 9.28977C0.278409 7.88068 0.477273 6.62216 0.875 5.5142C1.27841 4.40625 1.84091 3.46591 2.5625 2.69318C3.28409 1.91477 4.13068 1.32386 5.10227 0.920454C6.07386 0.511363 7.13068 0.306818 8.27273 0.306818C9.23864 0.306818 10.1392 0.448863 10.9744 0.732954C11.8097 1.01136 12.5511 1.40909 13.1989 1.92614C13.8523 2.44318 14.3892 3.05682 14.8097 3.76704C15.2301 4.47727 15.5057 5.26136 15.6364 6.11932H12.4148ZM18.8388 18V0.545454H22.0007V15.3494H29.6882V18H18.8388Z" fill="#1C1102"/>
<path d="M32.4325 18V0.545454H38.978C40.3189 0.545454 41.4439 0.778409 42.353 1.24432C43.2678 1.71023 43.9581 2.36364 44.424 3.20454C44.8956 4.03977 45.1314 5.0142 45.1314 6.12784C45.1314 7.24716 44.8928 8.21875 44.4155 9.04261C43.9439 9.8608 43.2479 10.4943 42.3274 10.9432C41.407 11.3864 40.2763 11.608 38.9354 11.608H34.2734V8.98295H38.5092C39.2933 8.98295 39.9354 8.875 40.4354 8.65909C40.9354 8.4375 41.3047 8.11648 41.5433 7.69602C41.7876 7.26989 41.9098 6.74716 41.9098 6.12784C41.9098 5.50852 41.7876 4.98011 41.5433 4.54261C41.299 4.09943 40.9268 3.7642 40.4268 3.53693C39.9268 3.30398 39.282 3.1875 38.4922 3.1875H35.5945V18H32.4325ZM41.4496 10.0909L45.7706 18H42.2422L37.9979 10.0909H41.4496ZM53.9567 18H48.0419V0.545454H54.076C55.8089 0.545454 57.2976 0.894886 58.5419 1.59375C59.7919 2.28693 60.7521 3.28409 61.4226 4.58523C62.093 5.88636 62.4283 7.44318 62.4283 9.25568C62.4283 11.0739 62.0902 12.6364 61.4141 13.9432C60.7436 15.25 59.7749 16.2528 58.5078 16.9517C57.2464 17.6506 55.7294 18 53.9567 18ZM51.2038 15.2642H53.8033C55.0192 15.2642 56.0334 15.0426 56.8459 14.5994C57.6584 14.1506 58.2692 13.483 58.6783 12.5966C59.0874 11.7045 59.2919 10.5909 59.2919 9.25568C59.2919 7.92045 59.0874 6.8125 58.6783 5.93182C58.2692 5.04545 57.6641 4.38352 56.8629 3.94602C56.0675 3.50284 55.0788 3.28125 53.897 3.28125H51.2038V15.2642ZM66.0952 18.1875C65.5781 18.1875 65.1349 18.0057 64.7656 17.642C64.3963 17.2784 64.2145 16.8352 64.2202 16.3125C64.2145 15.8011 64.3963 15.3636 64.7656 15C65.1349 14.6364 65.5781 14.4545 66.0952 14.4545C66.5952 14.4545 67.0298 14.6364 67.3991 15C67.7741 15.3636 67.9645 15.8011 67.9702 16.3125C67.9645 16.6591 67.8736 16.9744 67.6974 17.2585C67.527 17.5426 67.2997 17.7699 67.0156 17.9403C66.7372 18.1051 66.4304 18.1875 66.0952 18.1875Z" fill="#00966B"/>
</svg>
