<svg width="23" height="18" viewBox="0 0 23 18" fill="none" xmlns="http://www.w3.org/2000/svg">
<path fill-rule="evenodd" clip-rule="evenodd" d="M2.85841 10.995C1.23665 10.9996 0.189762 12.8471 1.18887 14.2468C2.6197 16.2512 5.21433 17.8599 9.54599 17.8599C16.2588 17.8599 21.6472 12.3895 20.8929 5.92618L21.998 3.71593C22.7644 2.18312 21.4326 0.439419 19.7522 0.775514L18.2922 1.06751C17.9051 0.863276 17.5045 0.709156 17.1621 0.597493C16.4949 0.379897 15.6872 0.207764 14.9397 0.207764C13.5968 0.207764 12.4379 0.552284 11.5169 1.24329C10.6063 1.92653 10.0934 2.82445 9.81193 3.64901C9.68217 4.02908 9.59579 4.4103 9.54037 4.77618C9.01936 4.61221 8.48812 4.39158 7.96803 4.12218C6.78808 3.51099 5.83393 2.73616 5.29569 2.05684C4.39266 0.917088 2.47892 1.00159 1.80737 2.48314C0.860882 4.57125 1.12052 7.04647 1.97129 9.04646C2.25646 9.71684 2.6274 10.3794 3.08057 10.9935C3.003 10.9944 2.92878 10.9948 2.85841 10.995ZM9.54589 15.8986C5.75721 15.8986 3.79814 14.5264 2.78514 13.1073C2.73964 13.0435 2.78553 12.9566 2.86385 12.9564C3.89439 12.9535 6.00971 12.9047 7.40482 12.0881C7.47697 12.0459 7.46109 11.9395 7.38185 11.9129C4.12976 10.8195 2.28116 6.18851 3.59368 3.29288C3.62378 3.22648 3.71302 3.21772 3.75829 3.27486C5.25762 5.16722 8.53583 7.02072 11.388 7.07143C11.4498 7.07253 11.4967 7.01631 11.4872 6.95514C11.3723 6.21003 10.9334 2.16912 14.9396 2.16912C15.8963 2.16912 17.3196 2.63575 17.8439 3.11381C17.8681 3.1359 17.901 3.14593 17.9331 3.1395L20.1367 2.69878C20.2167 2.68277 20.2802 2.76581 20.2437 2.8388L18.8769 5.57225C18.8674 5.59122 18.8644 5.61301 18.8681 5.6339C19.8253 11.0148 15.4182 15.8986 9.54589 15.8986Z" fill="white"/>
</svg>
